# xmcd
#
# Track frame offsets: 
#        150
#        12287
#        23535
#        34125
#        48377
#        64392
#        78630
#        89040
#        100200
#        115145
#
# Disc length: 1696 seconds
#
# Revision: 4
# Processed by: cddbd v1.4PL0 Copyright (c) Steve Scherf et al.
# Submitted via: ExactAudioCopy v0.90b4
#
DISCID=7e069e0a
DTITLE=Reba McEntire - My Kind Of Country
DYEAR=1984
DGENRE=Country
TTITLE0=How Blue
TTITLE1=That's What He Said
TTITLE2=I Want To Hear It From You
TTITLE3=It's Not Over (If I'm Not Over You)
TTITLE4=Somebody Should Leave
TTITLE5=Everything But My Heart
TTITLE6=Don't You Believe Him
TTITLE7=Before I Met You
TTITLE8=He's Only Everything
TTITLE9=You've Got Me (Right Where You Want Me)
EXTD=YEAR: 1984
EXTT0=
EXTT1=
EXTT2=
EXTT3=
EXTT4=
EXTT5=
EXTT6=
EXTT7=
EXTT8=
EXTT9=
PLAYORDER=
